<svg xmlns="http://www.w3.org/2000/svg" viewBox="0 0 40 40">
  <defs>
    <style>
      .cls-1 {
        fill: #fff;
      }
    </style>
  </defs>
  <path id="Path_12" data-name="Path 12" class="cls-1" d="M3157,40a20,20,0,0,1-7.785-38.428,20.005,20.005,0,0,1,15.57,36.856A19.876,19.876,0,0,1,3157,40Zm-5.672-22v3.91h3.309v9.84h4.039V21.91h3.136l.516-3.91h-3.652V15.293a2.216,2.216,0,0,1,.344-1.375,2.006,2.006,0,0,1,1.59-.515h2.063V9.922a21.439,21.439,0,0,0-3.008-.172,5,5,0,0,0-3.652,1.354,5.118,5.118,0,0,0-1.375,3.8V18Z" transform="translate(-3137)"/>
</svg>
