<svg xmlns="http://www.w3.org/2000/svg" viewBox="0 0 200.32 21.61"><defs><style>.cls-1{fill:#eb212b;}.cls-1,.cls-2,.cls-3{fill-rule:evenodd;}.cls-2{fill:#313c7d;}.cls-3{fill:#1f519c;}</style></defs><title>logo-airfrance</title><g id="Layer_2" data-name="Layer 2"><g id="Layer_1-2" data-name="Layer 1"><path class="cls-1" d="M165.38,2.44l-7.85,11.35a6.73,6.73,0,0,1-4.74,3.09v.35h8.73a6.41,6.41,0,0,0,5.16-3.17l8-11.62Z"/><path class="cls-2" d="M86,11.43h4.3L88,7.3,86,11.43Zm7.58,5.8-1.69-3H84.49l-1.53,3H79.29L86.64,3.7H90l8.31,13.53ZM6.86,11.43h4.41L9,7.3,6.86,11.43Zm7.79,5.8-1.74-3H5.35l-1.58,3H0L7.54,3.7H11l8.54,13.53Zm22-7.32C38.2,9.91,39,9.12,39,8.22s-.67-1.63-2.32-1.63h-4.2V9.91Zm3.15,2.24,5.46,5.08H41a2.7,2.7,0,0,1-2-.77l-3.72-3.6a.44.44,0,0,0-.32-.11H32.44v4.48h-4V3.68H37c4.44,0,6.31,2,6.31,4.21,0,2.57-2.29,3.8-3.56,4.26ZM70.55,9.91c1.57,0,2.32-.79,2.32-1.69s-.67-1.63-2.32-1.63h-4.2V9.91Zm3.16,2.24,5.46,5.08H75a2.72,2.72,0,0,1-2-.77l-3.71-3.6a.44.44,0,0,0-.32-.11H66.35v4.48H62.4V3.68H71c4.44,0,6.31,2,6.31,4.21,0,2.57-2.29,3.8-3.56,4.26ZM135,17.23V3.68h13.72V6.59H139V8.93h9.6v2.91H139v2.48h9.71v2.91Zm-88.23,0V3.68H60V6.59H50.73V10h9v2.91h-9v4.37Zm85.84-9.18a14,14,0,0,0-6.46-1.59c-3.18,0-5.56,1.65-5.56,3.94s2.42,4,5.53,4a12.63,12.63,0,0,0,6.62-1.82v3.35A15.43,15.43,0,0,1,126,17.48c-5.41,0-9.67-2.77-9.67-7.08s4.34-7,9.66-7a17.66,17.66,0,0,1,6.67,1.25V8.05ZM112,17.23l-9.5-8v8H99.13V3.68H102l9.37,7.92V3.68h3.33V17.23Zm-87.19,0h-4V3.68h4V17.23Z"/><path class="cls-3" d="M197,4.69h0A9.61,9.61,0,0,1,184.16,19v0a9.62,9.62,0,0,0,16.17-6.95V12q0-.33,0-.69A9.6,9.6,0,0,0,197,4.69Z"/><path class="cls-3" d="M179.91,15.63c-.3.17-.37.42-.21.82s.36.52.61.42.23-.25.15-.68l0-.17a1.7,1.7,0,0,1,0-.79.56.56,0,0,1,.35-.41c.43-.17.85.1,1.09.71s.12,1.15-.4,1.36l-.12-.32c.36-.15.44-.49.25-1s-.4-.56-.67-.46-.26.28-.18.73l0,.18,0,.17a1.38,1.38,0,0,1,0,.59.51.51,0,0,1-.33.37c-.41.16-.8-.08-1-.62s-.1-1,.36-1.25l.12.32Z"/><polygon class="cls-3" points="179.65 12.16 181.1 10.92 181.11 11.38 179.87 12.41 180.27 12.85 181.15 12.83 181.15 13.19 178.67 13.24 178.66 12.88 179.63 12.87 179.78 12.87 179.9 12.86 179.81 12.77 179.73 12.68 178.64 11.5 178.62 11.03 179.65 12.16 179.65 12.16"/><path class="cls-3" d="M180.74,8.31l.95.34-.11.34-1-.34-1.71.52.14-.41,1.06-.3.13,0,.19,0a1.55,1.55,0,0,1-.19-.24l-.66-.89.14-.39,1,1.45Z"/><polygon class="cls-3" points="182.42 3.76 181.89 4.4 183.45 5.68 183.08 6.14 181.52 4.86 180.99 5.5 180.64 5.21 182.06 3.47 182.42 3.76 182.42 3.76"/><polygon class="cls-3" points="185.76 1.41 184.51 2.14 184.77 2.6 185.93 1.93 186.14 2.3 184.99 2.97 185.3 3.49 186.57 2.74 186.81 3.14 185.02 4.18 183.77 2.05 185.53 1.01 185.76 1.41 185.76 1.41"/><path class="cls-3" d="M189.14,1.1a3.72,3.72,0,0,1-.27-.51,4,4,0,0,1-.1.56l-.1.47.72-.1-.25-.42Zm1.42,1.27-.65,0-.32-.54-1,.16-.14.61-.62.16L188.48.1l.62-.1,1.46,2.37Z"/><path class="cls-3" d="M194.54,3.17,194,3l.2-.74c0-.09.05-.2.1-.36s.07-.27.09-.36a2.81,2.81,0,0,0,.1-.31l.06-.18c-.15.26-.2.34-.34.55l-.15.22-.7,1-.45-.12-.14-1.19a1.32,1.32,0,0,1,0-.26c0-.15,0-.27,0-.36a1.44,1.44,0,0,1,0-.3l-.06.3c-.07.33-.11.47-.2.86l-.21.8-.55-.09L192.34,0l.83.16.12,1.15a4.27,4.27,0,0,1,0,.81,4,4,0,0,1,.24-.41l.19-.29.65-.94.79.27-.64,2.42Z"/><path class="cls-3" d="M194.48,11.18a3.32,3.32,0,0,1,1.68-.73c.22,0,.49.07.49.34s-.27.51-.79.7a4.7,4.7,0,0,1-1.91.12,4.56,4.56,0,0,1,.53-.43Zm-10.06.87c-.44,0-.65-.21-.65-.55,0,0,0-1.13,2.51-1.25a5.77,5.77,0,0,1,1.08,0l-.28.25-.16.14c-.59.54-1.6,1.46-2.5,1.39ZM189.8,8c-.3.26-.89.83-1.46,1.38l-.67.63a8.4,8.4,0,0,0-1.59-.14,4.19,4.19,0,0,0-2.82.85.86.86,0,0,0-.28.63c0,.58.68.88.89,1a2.91,2.91,0,0,0,2.92-.38,15.31,15.31,0,0,0,1.63-1.43c.38.09.81.21,1.28.35l.43.12c-.56.55-1.13,1.13-1.66,1.59l0,0a4.58,4.58,0,0,1-2,1.29,1.57,1.57,0,0,1-1.06-.07l0,0a1.94,1.94,0,0,0,1.59.51A4.09,4.09,0,0,0,189.21,13l1.1-1.07.77-.77,1.56.46h0l-1,.93-.83.83a16.57,16.57,0,0,1-1.81,1.6,4.38,4.38,0,0,1-2.14.93,2.13,2.13,0,0,1-1.17-.23l0,0a2.51,2.51,0,0,0,1.82.76c1,0,1.88-.51,3.27-1.77.62-.58,1.25-1.23,1.8-1.8l1-1a8.09,8.09,0,0,0,2,.21c1,0,1.8-.49,1.81-1a.87.87,0,0,0-.51-.72,2.2,2.2,0,0,0-1.2-.35,3.6,3.6,0,0,0-2.25,1l-.51.46-.19-.05L191.3,11l1.1-1a3.91,3.91,0,0,1,2.15-1,2.62,2.62,0,0,1,1.27.2l0,0A2.57,2.57,0,0,0,194,8.42a3.68,3.68,0,0,0-2.25.91,16.46,16.46,0,0,0-1.45,1.36l-.72-.22-.17-.06-.76-.22.43-.41c.51-.5,1-1,1.37-1.3a4.27,4.27,0,0,1,2.82-1.3,2.65,2.65,0,0,1,1.56.4l0,0a3,3,0,0,0-2.27-.92A4.51,4.51,0,0,0,189.8,8Z"/><path class="cls-3" d="M195.94,1.3c.05,0,.13.08.16,0s0-.08-.07-.1l-.1-.06-.06.1.07,0Zm.05.33-.06,0,0-.25-.07,0-.09.18-.05,0,.2-.39.18.09c.07,0,.13.09.08.18a.12.12,0,0,1-.18,0v.24Zm.25-.11a.35.35,0,0,0-.14-.47.33.33,0,0,0-.47.13.35.35,0,0,0,.14.47.36.36,0,0,0,.47-.13Zm-.68-.34a.39.39,0,0,1,.53-.2.41.41,0,0,1,.22.53.41.41,0,0,1-.75-.33Z"/></g></g></svg>